<svg id="icono_basura" data-name="icono basura" xmlns="http://www.w3.org/2000/svg" width="21.299" height="21.719" viewBox="0 0 21.299 21.719">
  <path id="Trazado_43" data-name="Trazado 43" d="M69.753,42.654c.76.1.774-.538.809-1.059.228-3.38.444-6.76.669-10.14.036-.538-.052-1.092-.683-1.03-.261.026-.632.6-.669.953-.182,1.715-.268,3.441-.388,5.163h.018q-.167,2.437-.334,4.874c-.036.526-.144,1.143.579,1.238" transform="translate(-55.602 -24.462)" fill="#30d87b"/>
  <path id="Trazado_44" data-name="Trazado 44" d="M32.689,41.619c.033.493.04,1.082.724,1.054.733-.031.7-.623.665-1.168q-.172-2.437-.338-4.874h.019c-.121-1.755-.208-3.513-.393-5.261-.037-.35-.427-.918-.688-.937-.632-.048-.7.516-.668,1.048q.343,5.07.678,10.14" transform="translate(-25.735 -24.467)" fill="#30d87b"/>
  <path id="Trazado_45" data-name="Trazado 45" d="M52.01,41.58c0,.514.022,1.061.695,1.072.7.011.688-.55.688-1.057q0-5.091,0-10.182c0-.531-.073-1.1-.72-1-.266.042-.621.632-.634.985-.066,1.727-.03,3.458-.03,5.188q0,2.5,0,4.993" transform="translate(-41.815 -24.447)" fill="#30d87b"/>
  <path id="Trazado_46" data-name="Trazado 46" d="M20.517,2.876H15.61c-.379-.4-.415-1.3-.585-1.966A1.037,1.037,0,0,0,13.856,0c-1.533.037-3.067.005-4.6.012C6.409.023,6.867-.277,6.45,2.374a1.23,1.23,0,0,1-.166.5H.785a.784.784,0,0,0,0,1.567H2.877a1.22,1.22,0,0,0-.056.4c.323,4.75.7,9.5,1.068,14.245a2.6,2.6,0,0,0,2.806,2.623c1.4.015,2.806,0,4.209,0s2.805.008,4.208,0A2.637,2.637,0,0,0,18.028,19c.229-3.025.471-6.048.7-9.072.136-1.756.3-3.511.366-5.269a.5.5,0,0,0-.049-.213h1.467a.784.784,0,1,0,0-1.567M8,1.439h5.7l.371,1.437H7.8L8,1.439m9.771,3.083a2.379,2.379,0,0,0-.11.867q-.5,6.683-1,13.366c-.089,1.2-.45,1.569-1.634,1.573q-4.013.014-8.025,0c-1.317,0-1.646-.336-1.746-1.666Q4.72,11.688,4.178,4.714c-.007-.088-.014-.18-.024-.271H17.814c-.015.026-.031.052-.045.079" transform="translate(-0.001 0)" fill="#30d87b"/>
</svg>
