<svg id="icono_cargar" data-name="icono  cargar" xmlns="http://www.w3.org/2000/svg" width="21.693" height="21.719" viewBox="0 0 21.693 21.719">
  <path id="Trazado_31" data-name="Trazado 31" d="M77.7,7.022a1.075,1.075,0,0,0-.308-.8Q74.423,3.292,71.49.325a.989.989,0,0,0-1.466,0c-1.863,1.886-3.743,3.755-5.617,5.629a1.488,1.488,0,0,0-.526.748,1.012,1.012,0,0,0,.673,1.135,1.03,1.03,0,0,0,1.058-.322q1.984-1.976,3.963-3.958c.055-.055.093-.141.217-.147v.247c0,4.365.012,8.729-.012,13.093a.977.977,0,0,0,1.953.067c.091-4.462,0-8.924.092-13.426a1.947,1.947,0,0,0,.152.194q2.036,2.039,4.071,4.078a1.108,1.108,0,0,0,1.022.2.936.936,0,0,0,.632-.836" transform="translate(-59.927 0)" fill="#30d87b"/>
  <path id="Trazado_32" data-name="Trazado 32" d="M21.689,260.966a1.061,1.061,0,0,1-.833,1.106,1.461,1.461,0,0,1-.433-.006h-19a2.767,2.767,0,0,0-.32.019A1.052,1.052,0,0,1,0,261.094c.017-1.368,0-2.736,0-4.1a.918.918,0,0,1,.678-.8.948.948,0,0,1,1.214.633,1.4,1.4,0,0,1,.082.506c0,.868,0,1.737,0,2.605,0,.12.015.172.157.172q2.94-.011,5.879-.009,5.729,0,11.458.006c.218,0,.261-.063.259-.267-.009-.93,0-1.859,0-2.79a.933.933,0,0,1,1.161-.838,1,1,0,0,1,.8,1.045c0,1.238.006,2.475,0,3.712" transform="translate(0 -240.372)" fill="#30d87b"/>
</svg>
