<svg id="LOGO_NUEVO" data-name="LOGO NUEVO" xmlns="http://www.w3.org/2000/svg" xmlns:xlink="http://www.w3.org/1999/xlink" width="285.913" height="134.393" viewBox="0 0 285.913 134.393">
  <defs>
    <clipPath id="clip-path">
      <rect id="Rectángulo_182" data-name="Rectángulo 182" width="285.913" height="134.393" fill="none"/>
    </clipPath>
  </defs>
  <path id="Trazado_60" data-name="Trazado 60" d="M782.335.567l-8.453,67.682h12.9l8.5-67.682Z" transform="translate(-637.207 -0.467)" fill="#04f77c"/>
  <g id="Grupo_265" data-name="Grupo 265">
    <g id="Grupo_264" data-name="Grupo 264" clip-path="url(#clip-path)">
      <path id="Trazado_61" data-name="Trazado 61" d="M329.871,6.336a6.3,6.3,0,0,0,6.116,6.469c.066,0,.131,0,.2,0a6.647,6.647,0,0,0,6.489-6.4,6.524,6.524,0,0,0-6.348-6.4,6.189,6.189,0,0,0-6.45,5.917q-.009.206,0,.413" transform="translate(-271.611 0)" fill="#fff"/>
      <path id="Trazado_62" data-name="Trazado 62" d="M441.4,107.766a19.075,19.075,0,0,0-3.831-6.455c-3.4-3.775-9.579-5.71-18.371-5.753h-.439c-8.7,0-15.812,1.672-21.121,4.97a39.423,39.423,0,0,0-3.622,2.536l.373-3.036.484-2.381h-.191l.191-1.559H381.906l-8.186,66.686h12.965L389.27,141.8c0-.016,0-.029,0-.044l.329-2.682a31.69,31.69,0,0,0,2.926,2.5c4.34,3.242,10.926,4.887,19.574,4.887h.654c17.851-.173,27.527-8.5,29.582-25.455a43.876,43.876,0,0,0,.345-5.171,24.271,24.271,0,0,0-1.277-8.07M429.125,121.1a29.959,29.959,0,0,1-1.974,8,13.941,13.941,0,0,1-3.774,5.346c-3.093,2.63-7.758,3.908-14.263,3.908-6.232,0-10.763-1.187-13.85-3.629a10.18,10.18,0,0,1-4.019-8.364,7.744,7.744,0,0,1,.05-1.065l1.1-8.869,0-.018a13.3,13.3,0,0,1,6.165-9.1c3.6-2.412,8.521-3.635,14.63-3.635a32.218,32.218,0,0,1,7.995.842,10.263,10.263,0,0,1,4.975,2.645c2.146,2.286,3.234,5.531,3.234,9.646a38.322,38.322,0,0,1-.269,4.3" transform="translate(-307.718 -78.682)" fill="#04f77c"/>
      <path id="Trazado_63" data-name="Trazado 63" d="M954.513,113.4a13.629,13.629,0,0,0-2.807-8.566,16.9,16.9,0,0,0-7.812-5.336c-3.441-1.16-9.615-1.748-18.349-1.748a94.66,94.66,0,0,0-11.648.562,53.006,53.006,0,0,0-9.121,1.979,20.679,20.679,0,0,0-8,4.76,16.155,16.155,0,0,0-4.365,8.764H903.95a8.79,8.79,0,0,1,3.191-5.477l.009-.007a15.569,15.569,0,0,1,6.589-2.608,56.242,56.242,0,0,1,10.018-.684,67.5,67.5,0,0,1,10.519.622l.014,0a9.64,9.64,0,0,1,5.523,2.743,7.5,7.5,0,0,1,1.825,5.212c0,.472-.038.97-.079,1.5l-.012.153-.438,3.394H917.731a59.229,59.229,0,0,0-15,1.765,22.966,22.966,0,0,0-6.377,2.7,15.447,15.447,0,0,0-4.516,4.224,13.726,13.726,0,0,0-2.251,6.222,19.639,19.639,0,0,0-.126,2.181,9.786,9.786,0,0,0,4.183,8.507c2.774,2.024,8.4,4.437,19.457,4.437,7.1,0,12.447-.781,16.343-2.387l.01,0a20.347,20.347,0,0,0,5.171-2.9,38.409,38.409,0,0,0,4.342-4.372l-.945,9.005H950.41l3.89-31.677a24.718,24.718,0,0,0,.213-2.965M939.432,132.18l-.008.027a8.971,8.971,0,0,1-3.051,4.234,19.367,19.367,0,0,1-5.441,3.128c-3.67,1.436-8.142,2.1-14.075,2.1-4.479,0-7.649-.434-9.976-1.365a7.146,7.146,0,0,1-3.24-2.375,5.977,5.977,0,0,1-1.083-3.574,9.407,9.407,0,0,1,.079-1.061l.015-.131a8.144,8.144,0,0,1,5.329-6.722c2.422-1.02,5.6-1.5,10.011-1.5h22.454l-.48,4.572Z" transform="translate(-732.376 -80.488)" fill="#04f77c"/>
      <path id="Trazado_64" data-name="Trazado 64" d="M1292.209,98.556l-21.143,40.81-1.2-4.316a3.957,3.957,0,0,0-.1-.652l-10.089-35.842h-14.151l15.285,50.781h5.411l-.824,1.158c-2.513,3.533-4.494,5.538-6.057,6.131l-.012,0c-.551.2-2.226.8-17.891.8h-1.1l-1.179,9.591h.331c12.765,0,21.15-.486,24.921-1.442,3.559-.914,8.221-6.251,13.856-15.863l27.958-51.16Z" transform="translate(-1020.309 -81.15)" fill="#04f77c"/>
      <path id="Trazado_65" data-name="Trazado 65" d="M61.241,22.591c-3.054-3.267-9.3-4.967-18.571-5.053h-.642A49.857,49.857,0,0,0,30.48,18.77a29.493,29.493,0,0,0-8.971,3.679,42.651,42.651,0,0,0-3.607,2.6l.334-2.8a.682.682,0,0,0,.047-.087v-.021L20.9,0H8.168L0,67.92H12.773l.516-4.3v0l.317-2.652a26.411,26.411,0,0,0,2.868,2.43c4.343,3.266,10.884,4.923,19.441,4.923h.429c9.281-.043,16.258-2.026,20.737-5.9a20.877,20.877,0,0,0,5.393-7.751A44.626,44.626,0,0,0,65.43,42.743v-.007a47.39,47.39,0,0,0,.424-6.2c0-5.979-1.553-10.672-4.614-13.949M52.42,43.02a35.832,35.832,0,0,1-1.858,8.206,13.572,13.572,0,0,1-3.337,5.3,13.133,13.133,0,0,1-5.715,2.793,36.509,36.509,0,0,1-8.738.9,30.817,30.817,0,0,1-7.888-.905,15.384,15.384,0,0,1-5.71-2.758,10.082,10.082,0,0,1-3.947-8.212,8.941,8.941,0,0,1,.048-1.1l1.035-8.809,0-.018a13.528,13.528,0,0,1,6.093-9.212,19.319,19.319,0,0,1,6.28-2.705,34,34,0,0,1,8.089-.88c7.039,0,11.38,1.073,13.27,3.281l.006.007c1.8,2.162,2.719,5.242,2.719,9.156a42.2,42.2,0,0,1-.35,4.949" fill="#04f77c"/>
      <path id="Trazado_66" data-name="Trazado 66" d="M377.817,599.566a9.523,9.523,0,0,1-4.48-4.526,13.277,13.277,0,0,1-.97-4.942H379.9a7.518,7.518,0,0,0,.508,3q1.293,2.771,5.543,2.771a8.357,8.357,0,0,0,3.395-.624,3.528,3.528,0,0,0,1.917-1.778,4.6,4.6,0,0,0,.416-1.8,4.173,4.173,0,0,0-.37-1.709,3.631,3.631,0,0,0-1.409-1.617A9.322,9.322,0,0,0,387.7,587.3q-1.2-.392-3.372-.993l-2.078-.554a19.746,19.746,0,0,1-5.335-2.148,7.555,7.555,0,0,1-3.071-3.395,9.529,9.529,0,0,1-.739-3.649,9.136,9.136,0,0,1,.878-3.88,8.635,8.635,0,0,1,4.249-4.249,16.158,16.158,0,0,1,7.3-1.524,15.418,15.418,0,0,1,7.09,1.5,8.989,8.989,0,0,1,4.226,4.319,12.152,12.152,0,0,1,.877,4.757h-7.067a7.26,7.26,0,0,0-.508-2.91q-1.2-2.539-4.9-2.54a6.8,6.8,0,0,0-3.025.624,3.656,3.656,0,0,0-1.778,1.686,2.265,2.265,0,0,0-.231.716,5.775,5.775,0,0,0-.046.762,4.374,4.374,0,0,0,.231,1.478,3.186,3.186,0,0,0,1.317,1.409,9.388,9.388,0,0,0,2.148.947q1.2.37,3.326.924,1.339.323,1.755.462a33.421,33.421,0,0,1,4.226,1.386,13.068,13.068,0,0,1,3.141,1.824,7.376,7.376,0,0,1,2.1,2.656,10.159,10.159,0,0,1,.739,3.972,10.4,10.4,0,0,1-.878,4.249,9,9,0,0,1-4.6,4.48,18.437,18.437,0,0,1-7.967,1.57,17.171,17.171,0,0,1-7.9-1.617" transform="translate(-306.604 -466.789)" fill="#fff"/>
      <path id="Trazado_67" data-name="Trazado 67" d="M549.924,599.449a12.287,12.287,0,0,1-5.242-5.011,14.289,14.289,0,0,1-1.94-4.619,24.53,24.53,0,0,1-.647-5.774,21.913,21.913,0,0,1,1.663-8.868,13.182,13.182,0,0,1,5.4-6.1,19.338,19.338,0,0,1,17.759-.023,13.092,13.092,0,0,1,5.381,6.074,24.105,24.105,0,0,1,0,17.829,13.21,13.21,0,0,1-5.4,6.1,17.2,17.2,0,0,1-8.868,2.125,17.639,17.639,0,0,1-8.106-1.732m15.727-8.937a10.925,10.925,0,0,0,.854-2.841,22.719,22.719,0,0,0,.254-3.626,23.072,23.072,0,0,0-.254-3.672,10.943,10.943,0,0,0-.854-2.841,7.237,7.237,0,0,0-2.864-3.326,9,9,0,0,0-4.757-1.155,8.764,8.764,0,0,0-4.711,1.178,7.41,7.41,0,0,0-2.864,3.3,11.609,11.609,0,0,0-.854,2.887,26,26,0,0,0,0,7.252,11.59,11.59,0,0,0,.854,2.887,7.225,7.225,0,0,0,2.864,3.325,8.995,8.995,0,0,0,4.758,1.155q5.588,0,7.575-4.526" transform="translate(-446.356 -466.788)" fill="#fff"/>
      <path id="Trazado_68" data-name="Trazado 68" d="M757.86,590.74h-2.587v13.487h-6.836V571.618h13.625q7.805,0,10.023,4.942a11.1,11.1,0,0,1,.878,4.526,13.2,13.2,0,0,1-.231,2.494,9.608,9.608,0,0,1-.647,2.125q-1.8,4.157-6.836,4.85l10.023,13.672h-7.852Zm-2.587-4.942h4.9q4.3,0,5.358-2.217a5.839,5.839,0,0,0,.416-2.31,5.471,5.471,0,0,0-.37-2.125,3.258,3.258,0,0,0-1.894-1.709,10.088,10.088,0,0,0-3.51-.508h-4.9Z" transform="translate(-616.257 -470.665)" fill="#fff"/>
      <path id="Trazado_69" data-name="Trazado 69" d="M906.657,577.391h-7.575v-5.774h21.893v5.774h-7.529v26.835h-6.79Z" transform="translate(-740.296 -470.665)" fill="#fff"/>
      <path id="Trazado_70" data-name="Trazado 70" d="M1042.136,571.618h20.877V577.3h-14.041v7.575h13.9v5.589h-13.9v8.083h14.041v5.681h-20.877Z" transform="translate(-858.085 -470.665)" fill="#fff"/>
      <path id="Trazado_71" data-name="Trazado 71" d="M1188.834,599.449a12.288,12.288,0,0,1-5.242-5.011,14.292,14.292,0,0,1-1.94-4.619,24.536,24.536,0,0,1-.646-5.774,21.913,21.913,0,0,1,1.663-8.868,13.181,13.181,0,0,1,5.4-6.1,19.338,19.338,0,0,1,17.759-.023,13.091,13.091,0,0,1,5.381,6.074,24.1,24.1,0,0,1,0,17.829,13.209,13.209,0,0,1-5.4,6.1,17.194,17.194,0,0,1-8.868,2.125,17.639,17.639,0,0,1-8.106-1.732m15.727-8.937a10.925,10.925,0,0,0,.854-2.841,22.719,22.719,0,0,0,.254-3.626,23.072,23.072,0,0,0-.254-3.672,10.943,10.943,0,0,0-.854-2.841,7.236,7.236,0,0,0-2.864-3.326,9,9,0,0,0-4.757-1.155,8.764,8.764,0,0,0-4.711,1.178,7.411,7.411,0,0,0-2.864,3.3,11.614,11.614,0,0,0-.854,2.887,25.99,25.99,0,0,0,0,7.252,11.6,11.6,0,0,0,.854,2.887,7.226,7.226,0,0,0,2.864,3.325,8.995,8.995,0,0,0,4.757,1.155q5.588,0,7.575-4.526" transform="translate(-972.428 -466.788)" fill="#fff"/>
      <path id="Trazado_72" data-name="Trazado 72" d="M1385.212,599.566a9.523,9.523,0,0,1-4.48-4.526,13.27,13.27,0,0,1-.97-4.942h7.529a7.51,7.51,0,0,0,.508,3q1.292,2.771,5.542,2.771a8.357,8.357,0,0,0,3.395-.624,3.527,3.527,0,0,0,1.917-1.778,4.6,4.6,0,0,0,.416-1.8,4.174,4.174,0,0,0-.369-1.709,3.631,3.631,0,0,0-1.409-1.617,9.322,9.322,0,0,0-2.194-1.039q-1.2-.392-3.372-.993l-2.078-.554a19.748,19.748,0,0,1-5.335-2.148,7.558,7.558,0,0,1-3.072-3.395,9.534,9.534,0,0,1-.739-3.649,9.135,9.135,0,0,1,.878-3.88,8.635,8.635,0,0,1,4.249-4.249,16.159,16.159,0,0,1,7.3-1.524,15.419,15.419,0,0,1,7.09,1.5,8.99,8.99,0,0,1,4.226,4.319,12.148,12.148,0,0,1,.878,4.757h-7.067a7.259,7.259,0,0,0-.508-2.91q-1.2-2.539-4.9-2.54a6.8,6.8,0,0,0-3.025.624,3.657,3.657,0,0,0-1.778,1.686,2.263,2.263,0,0,0-.231.716,5.774,5.774,0,0,0-.046.762,4.365,4.365,0,0,0,.231,1.478,3.183,3.183,0,0,0,1.316,1.409,9.393,9.393,0,0,0,2.148.947q1.2.37,3.326.924,1.339.323,1.755.462a33.427,33.427,0,0,1,4.226,1.386,13.071,13.071,0,0,1,3.141,1.824,7.375,7.375,0,0,1,2.1,2.656,10.16,10.16,0,0,1,.739,3.972,10.4,10.4,0,0,1-.878,4.249,9,9,0,0,1-4.6,4.48,18.437,18.437,0,0,1-7.967,1.57,17.173,17.173,0,0,1-7.9-1.617" transform="translate(-1136.083 -466.789)" fill="#fff"/>
    </g>
  </g>
</svg>
