<svg xmlns="http://www.w3.org/2000/svg" width="275" height="163.086" viewBox="0 0 275 163.086">
  <g id="logo_bplay_sorteos" data-name="logo bplay sorteos" transform="translate(-823 -116.914)">
    <g id="LOGO" transform="translate(823 116.914)">
      <path id="Trazado_25" data-name="Trazado 25" d="M369.7,93.9c0,3.138.163,5.791-.031,8.422-.708,9.588-10.589,16.691-19.981,14.593a19.067,19.067,0,0,1-12.528-8.671,4.866,4.866,0,0,0-3.851-1.882,4.136,4.136,0,0,0-2.866,2.806,7.907,7.907,0,0,0,1.539,4.595c7.38,11.324,25.253,15.256,36.626,4.971,4.155-3.756,7.833-8.043,7.881-13.968.152-19.387.036-38.778.088-58.164.008-1.974-.721-3.086-2.629-3.259-1.866-.172-3.382.464-3.8,2.5a16.15,16.15,0,0,0-.27,3.167c-.076,9.78.229,19.578-.3,29.33-.483,8.917-8.785,15.375-17.451,14.716-9.2-.7-15.617-8.134-15.62-17.4q0-14.139-.012-28.286c0-2.626-1.236-4.046-3.457-4.092a3.751,3.751,0,0,0-3.842,3.92c.066,11.018-.15,22.058.525,33.043.561,9.108,8.723,17.528,17.65,19.368,8.14,1.679,15.466-.3,22.329-5.715" transform="translate(-103.205 -13.569)" fill="#30d87b"/>
      <path id="Trazado_26" data-name="Trazado 26" d="M206.618,50.04c0,12-.044,24.011.056,36.016a6.1,6.1,0,0,0,1.357,4.023,4.543,4.543,0,0,0,3.822.575c1.93-.59,2.263-2.446,2.263-4.367q-.043-35.884-.021-71.771c0-.709.188-1.626-.173-2.082-.827-1.043-1.825-2.347-2.973-2.619a4.284,4.284,0,0,0-3.455,1.265c-.713.771-.835,2.286-.842,3.476-.055,11.827-.034,23.655-.034,35.485" transform="translate(-64.773 -3.061)" fill="#30d87b"/>
      <path id="Trazado_27" data-name="Trazado 27" d="M91.8,22.962A7.3,7.3,0,0,0,99.1,30.446a7.725,7.725,0,0,0,7.525-7.411,7.556,7.556,0,0,0-7.453-7.406A7.169,7.169,0,0,0,91.8,22.962" transform="translate(-28.78 -4.9)" fill="#fff"/>
      <path id="Trazado_28" data-name="Trazado 28" d="M0,5.346C1.353,2.375,3.12.007,6.85,0c4.434-.012,7.422,2.738,7.47,7.214.065,5.959.014,11.919.024,17.882,0,.852.074,1.707.132,2.915,6.248-4.413,13.037-5.4,20.129-5,11.438.644,20.1,6.2,25.947,15.743a32.3,32.3,0,0,1-4.318,39.137C43.075,91.836,20.892,91.056,8.864,77.6A36.3,36.3,0,0,1,0,58.735ZM14.339,55.508c0,10.448,8.125,18.85,18.384,18.682A18.543,18.543,0,0,0,51.035,55.551c0-10.07-8.416-18.685-18.39-18.535-10.206.153-18.637,8.276-18.305,18.492" transform="translate(0 0)" fill="#30d87b" fill-rule="evenodd"/>
      <path id="Trazado_29" data-name="Trazado 29" d="M288.969,72.642a30.982,30.982,0,0,0-.513-5.817c-3.6-18.1-22.224-28.9-40.33-21.289-18.7,7.865-23.422,32.181-9.448,46.9,7.084,7.463,15.9,10.442,26.114,8.548,6.261-1.162,11.46-4.562,16.853-9,0,2.212-.017,3.789.005,5.365.034,2.657,1.437,4.234,3.7,4.2,2.123-.035,3.634-1.792,3.639-4.357.021-8.18.038-16.365-.019-24.546M260.174,94.177a21.906,21.906,0,0,1-22.227-21.439c-.334-11.819,9.71-22.185,21.7-22.392,11.548-.2,21.616,9.68,21.983,21.572.37,11.863-9.33,21.927-21.453,22.26" transform="translate(-72.288 -13.502)" fill="#30d87b" fill-rule="evenodd"/>
      <path id="Trazado_30" data-name="Trazado 30" d="M164.634,62.213c-4.116-11.326-12.861-17.684-25.087-18.808-15.574-1.438-30.729,10.964-31.209,26.45-.526,17.059-.149,34.149-.112,51.223a3.457,3.457,0,0,0,4.268,3.552c2.561-.377,3.175-2.186,3.169-4.466-.021-9.057-.007-18.116-.007-27.812,1.24.921,2,1.481,2.762,2.053,7.218,5.423,15.059,8.6,24.3,6.785,17.723-3.476,28.443-21.034,21.92-38.977m-27.375,32a21.879,21.879,0,1,1,22.022-21.749c.167,11.912-10.162,21.829-22.022,21.749" transform="translate(-33.878 -13.572)" fill="#30d87b"/>
    </g>
    <text id="sorteos" transform="translate(897 270)" fill="#fff" font-size="40" font-family="Gotham-Bold, Gotham" font-weight="700"><tspan x="0" y="0">SORTEOS</tspan></text>
  </g>
</svg>
